<?xml version="1.0" encoding="UTF-8"?><svg xmlns="http://www.w3.org/2000/svg" width="1000" height="1000" viewBox="0 0 1000 1000"><defs><style>.cls-1{fill:#e3cd62;}.cls-2{fill:#cc3e25;}</style></defs><g id="Layer_2"><path class="cls-2" d="M472.55,275.36L238.07,814.84l.14,.54c.83,3.19,4.36,4.82,7.32,3.38h0L498.29,286.64l.08-.58c.62-4.3-.85-8.73-4.16-11.55-2.64-2.25-5.84-3.75-9.24-4.33-4.76-.82-9.56,1.29-12.43,5.18h0Z"/><path class="cls-2" d="M379.59,224.91L244.14,797.35l.23,.5c1.38,2.99,5.15,3.97,7.81,2.03h0L406.92,231.47l-.02-.59c-.15-4.35-2.38-8.44-6.13-10.64-2.99-1.75-6.41-2.66-9.86-2.63-4.83,.04-9.18,2.96-11.31,7.3h0Z"/></g><g id="Layer_3"><g><path class="cls-1" d="M327.19,674.54l-3.66,8.49c14.65,4.79,28.37,14.89,33.64,29.37,5.27,14.48-1.42,31.22-15.56,37.34-14.14,6.12-32.63-4.07-30.53-19.34,.85-6.21,2.79-15.48-3.43-16.25-3.29-.41-5.89,2.73-7.27,5.75-4.39,9.65-3.06,23.58,2.99,32.16,6.38,9.05,17.91,12.49,29.09,12.06,21.77-.82,41.92-21.57,39.86-43.25s-23.28-41.81-44.35-47.33"/><path class="cls-1" d="M326.76,674.79l-2.57,5.96-.64,1.49-.3,.69s-.17,.31-.15,.34c.03,.05,.3,.1,.35,.12,.77,.26,1.53,.53,2.29,.81,3.05,1.14,6.03,2.51,8.88,4.1,5.67,3.16,10.88,7.23,15.05,12.22s7.16,10.55,8.33,16.73c1.09,5.75,.46,11.79-1.77,17.21s-6.06,10.18-11,13.36-10.88,4.12-16.51,3.06c-5.06-.95-9.93-3.5-13.28-7.46-1.61-1.9-2.84-4.12-3.5-6.53-.71-2.56-.67-5.12-.29-7.73s.82-5.28,.83-7.94c.01-2.09-.19-4.64-1.8-6.17-.79-.75-1.87-1.13-2.95-1.18-1.32-.06-2.43,.5-3.53,1.15-2.67,1.58-4.14,4.49-5.13,7.33-2.11,6.08-2.19,12.88-.77,19.13s4.48,11.96,9.51,15.98,11.45,6.09,17.83,6.72c6.33,.63,12.67-.09,18.62-2.36,5.39-2.06,10.47-5.2,14.75-9.06,4.56-4.11,8.32-9.14,10.79-14.77s3.55-11.67,2.91-17.72-2.96-12.43-6.18-17.9-7.77-10.83-12.76-15.2-10.61-8.06-16.67-10.78c-2.81-1.26-5.72-2.31-8.7-3.1-.23-.06-.64,.56-.87,.5,6.23,1.64,12.13,4.41,17.52,7.92s10.62,8.04,14.89,13.11,7.61,10.54,9.77,16.65c2.04,5.77,2.86,11.95,1.89,18.02s-3.45,11.59-6.94,16.47-8.45,9.6-13.92,12.72-11.56,4.93-17.77,5.18c-6.46,.26-13.12-.74-18.97-3.57s-10.22-7.29-12.8-13.1-3.5-12.6-2.72-18.97c.37-3.06,1.14-6.13,2.48-8.91,.7-1.44,1.62-2.82,2.83-3.89,.13-.12,.27-.23,.42-.34,.09-.07,.19-.13,.28-.2,.37-.28-.09,.02-.1,.04,.15-.24,1.01-.4,1.26-.45,.67-.14,1.36-.13,2.02,0,5.07,1.06,4.03,8.32,3.55,12.02-.34,2.59-.9,5.17-.7,7.79s.96,4.91,2.22,7.07c2.58,4.41,6.99,7.55,11.78,9.17,5.05,1.7,10.67,1.75,15.68-.14s9.76-5.38,13.05-9.72c3.48-4.57,5.57-10.15,6.03-15.87,.49-6.11-.99-12.07-3.83-17.46s-7.27-10.46-12.25-14.39-10.88-7.14-16.96-9.37c-.35-.13-.7-.26-1.06-.38-.18-.06-.35-.12-.53-.18-.13-.05-.52-.1-.62-.21-.12-.12,.07-.4,.16-.6l.3-.69,.59-1.38,2.52-5.85c-.1,.24-.76,.25-.87,.5h0Z"/></g><g><path class="cls-1" d="M330.12,668.26c10.91,2.45,14.85,5.88,23.63,11.65,16.33,10.73,26.83,31.67,23.89,50.45-2.56,16.38-14.08,29.52-29.49,35.95-10.17,4.25-16.54,5.28-28.27,3.87,20.28,9.81,38.36,4.66,52.58-11.15,14.22-15.81,17.15-38.28,8.71-57.79-8.44-19.51-27.23-34.38-47.61-40.46,0,0-2.13,3.63-3.45,7.49Z"/><path class="cls-1" d="M329.69,668.51c5.01,1.14,9.77,2.86,14.2,5.48,2.07,1.23,4.06,2.57,6.06,3.91,2.25,1.51,4.54,2.95,6.67,4.61,8.36,6.52,14.76,15.59,18.26,25.59s3.85,20.53,.34,30.4-10.31,17.9-18.89,23.5c-2.51,1.64-5.18,2.99-7.94,4.13-2.59,1.07-5.21,2.06-7.91,2.82-5.07,1.42-10.27,1.77-15.52,1.41-1.55-.11-3.09-.26-4.64-.45-.21-.02-.7,.58-.87,.5,5.7,2.75,11.87,4.63,18.22,4.94,5.69,.28,11.39-.74,16.64-2.95s9.69-5.19,13.76-8.81c4.72-4.21,8.79-9.14,11.82-14.69,5.86-10.73,7.7-23.36,5.52-35.37s-8.38-23.07-16.8-31.9c-8.43-8.84-19.02-15.62-30.49-19.76-1.36-.49-2.74-.94-4.12-1.36-.09-.03-.82,.42-.87,.5-1.38,2.37-2.55,4.9-3.45,7.49,.08-.23,.78-.26,.87-.5,.9-2.59,2.07-5.12,3.45-7.49l-.87,.5c11.38,3.41,22.01,9.4,30.8,17.39s15.77,18.13,19.17,29.57,3.12,23.98-1.19,35.17c-2.16,5.61-5.29,10.83-9.23,15.38s-8.92,9.05-14.45,11.94c-4.98,2.6-10.48,4.15-16.1,4.4-5.92,.26-11.81-.9-17.33-3.01-1.53-.58-3.02-1.24-4.49-1.94l-.87,.5c5.64,.67,11.35,.93,16.96-.19,2.66-.53,5.26-1.34,7.8-2.28s5.22-2.06,7.71-3.36c9.07-4.74,16.87-11.74,21.66-20.87,2.42-4.62,4.03-9.68,4.68-14.85s.27-10.63-.93-15.78c-2.46-10.61-8.26-20.48-16.19-27.93-3.99-3.75-8.64-6.67-13.2-9.66-4.07-2.67-8.29-4.91-12.96-6.33-1.46-.44-2.93-.82-4.41-1.16-.24-.06-.63,.55-.87,.5Z"/></g><path class="cls-1" d="M334.05,657.46c.29,0,.58-.5,.87-.5-.29,0-.58,.5-.87,.5h0Z"/><g><path class="cls-1" d="M337.27,650.37c9.12,1.71,16.04,4.04,25.59,8.6s17.08,12.75,23.01,20.89c7.59,10.43,11.33,22.02,13.22,33.65,2.96,18.17-3.82,36.33-16,48.91-7.31,7.55-18.07,11.64-28.33,15.71,7.73-4.46,16.6-9.21,22.16-15.88,11.13-13.35,17-30.87,13.99-48.5-2.65-15.57-10.06-30.53-22.62-41.21-8.76-7.45-22.98-13.31-33.81-15.35l2.78-6.83Z"/><path class="cls-1" d="M336.84,650.62c5.62,1.06,11.13,2.56,16.47,4.62,5.66,2.19,11.32,4.67,16.24,8.27s8.78,7.63,12.45,12.12c3.86,4.73,7.25,9.79,9.86,15.32s4.42,11.2,5.71,17.07,2.01,11.35,1.71,17.14c-.59,11.28-4.72,22.25-11.4,31.33-3.35,4.56-7.27,8.6-12,11.73-5.16,3.41-10.97,5.79-16.7,8.08-1.33,.53-2.66,1.06-3.99,1.58l-.43,.25c5.12-2.95,10.34-5.8,15.11-9.31,2.4-1.76,4.7-3.7,6.69-5.92s3.9-4.82,5.57-7.4c6.68-10.32,10.43-22.56,9.95-34.9-.23-6.01-1.49-11.99-3.33-17.7s-4.27-11-7.41-15.98-7.05-9.69-11.52-13.67-9.3-6.89-14.5-9.4c-5.31-2.57-10.89-4.64-16.61-6.07-.63-.16-1.26-.31-1.89-.45-.29-.06-.59-.13-.88-.19-.13-.03-.98-.09-1.04-.21-.07-.13,.39-.96,.44-1.09l1.93-4.74,.41-1c-.1,.24-.76,.25-.87,.5l-1.37,3.36-.97,2.39c-.07,.17-.51,.91-.44,1.09,.05,.13,1.57,.32,1.74,.36,.66,.14,1.32,.3,1.98,.46,1.31,.33,2.61,.69,3.9,1.08,2.79,.85,5.54,1.85,8.24,2.97,5.37,2.23,10.6,4.96,15.3,8.4s8.79,7.7,12.26,12.34c6.97,9.32,11.45,20.53,13.18,32.03,1.82,12.12-.59,24.58-6.19,35.43-1.39,2.7-2.98,5.3-4.74,7.78s-3.57,4.79-5.71,6.86c-4.56,4.41-10.08,7.7-15.54,10.85-1.24,.71-2.48,1.42-3.72,2.14-.14,.08-.28,.2-.43,.25,5.51-2.19,11.07-4.33,16.33-7.09,4.73-2.49,9.29-5.4,13.02-9.27,8-8.31,13.57-18.97,15.65-30.33,1.06-5.8,1.2-11.76,.34-17.59s-2.35-12-4.45-17.71-5.16-11.64-8.9-16.79c-3.48-4.79-7.36-9.34-11.79-13.28-2.25-2-4.65-3.83-7.2-5.42-2.71-1.68-5.61-2.99-8.52-4.27-5.38-2.36-10.92-4.28-16.65-5.6-1.47-.34-2.95-.64-4.43-.92-.25-.05-.62,.55-.87,.5Z"/></g><g><path class="cls-1" d="M269.72,650.37s.84-13.64-1.01-14.08c-29.21-6.97-46.06-43.39-37.22-72.55,9.17-30.24,39.07-48.5,70.1-54.49,31.03-5.99,63.1-3.05,93.54,5.42,11.15,3.1,23.6,9.73,32.17,17.51,8.56,7.78,13.39,16.86,8.32,27.26-3.66,7.49-12.06,13.63-20.21,16.29-3.75,1.22-3.03,6.79,.91,7.04,6.93,.43,14.01-1.35,19.74-5.3,4.79-3.3,9.26-6.53,12.31-10.37s4.67-12.3,3.77-18.04c-1.62-10.33-7.43-17.69-16.43-26.4-10.28-9.96-24.42-16.78-35.92-19.99-12.76-3.56-24.12-5.39-37.6-7.19s-29.08-1.54-42.31-.92c-26.45,1.24-55.59,10.41-75.74,27.6-20.15,17.18-29.16,38.1-25.6,64.35s25.19,61.34,51.55,63.88"/><path class="cls-1" d="M270.15,650.12c.21-3.44,.33-6.94,.06-10.37-.09-1.16-.02-3.37-1.37-3.78-2.86-.86-5.64-1.7-8.35-2.99-10.75-5.14-19.08-14.43-24.3-25.02-5.38-10.9-7.7-23.44-6.17-35.53,1.63-12.88,7.89-24.92,16.58-34.45,9.62-10.55,22.06-18.11,35.36-23.09,14.67-5.5,30.44-7.84,46.04-8.41,17.74-.65,35.53,1.24,52.87,5.02,8.11,1.77,16.25,3.72,23.89,7.03,7.15,3.1,14,7.11,20.01,12.09,5.4,4.48,10.79,10.2,12.17,17.33s-2.09,14.06-7.11,19.01c-3.07,3.03-6.69,5.51-10.64,7.24-1.84,.81-4.43,1.22-5.83,2.82-1.49,1.71-.94,4.61,1.09,5.62,1.43,.72,3.43,.47,4.97,.4,1.96-.09,3.92-.36,5.83-.8,6.71-1.55,12.43-5.51,17.73-9.75,2.7-2.16,5.54-4.61,7.13-7.74s2.26-6.38,2.57-9.69c.63-6.73-1.39-13.36-4.91-19.06-1.9-3.07-4.2-5.88-6.65-8.54-2.69-2.92-5.52-5.74-8.56-8.29-5.87-4.91-12.51-8.89-19.47-12.05-6.81-3.09-13.93-5.16-21.21-6.86-8.2-1.92-16.51-3.29-24.84-4.45s-16.91-1.86-25.45-1.97c-15.63-.19-31.36,.43-46.64,3.96-13.72,3.17-26.96,8.35-38.98,15.72-11.92,7.31-22.73,17.18-29.85,29.32-6.79,11.59-9.5,24.9-8.59,38.24,.87,12.81,5.07,25.18,11.3,36.36,6.09,10.93,14.4,21.36,25.28,27.83,4.76,2.83,10.02,4.78,15.55,5.34,.27,.03,.6-.53,.87-.5-11.93-1.2-22.12-8.75-29.84-17.5-8.52-9.65-14.89-21.36-18.77-33.61-3.92-12.37-4.95-25.87-2.08-38.59s10.15-24.53,19.62-33.85c11.47-11.29,25.69-19.17,40.85-24.34,7.16-2.44,14.52-4.29,21.97-5.57s14.88-1.82,22.4-2.1c8.42-.3,16.86-.38,25.27,.07s16.81,1.65,25.14,3.01c15.22,2.48,30.46,5.88,44.04,13.44,6.81,3.79,12.91,8.47,18.4,14,4.99,5.03,9.74,10.57,12.34,17.26s2.74,13.16,.69,19.67c-1.02,3.23-2.71,5.74-5.14,8.1-3.04,2.95-6.57,5.46-10.09,7.8s-7.86,3.77-12.09,4.35c-1.95,.27-3.92,.36-5.88,.27-1.26-.06-2.41-.34-3.21-1.39-.65-.86-.9-2.02-.67-3.08,.28-1.31,1.02-1.91,2.18-2.32,2.7-.94,5.24-2.22,7.7-3.68,5.85-3.47,11.24-8.5,13.62-15.01s.54-13.54-3.66-19.12c-4.56-6.06-10.93-10.78-17.39-14.64-6.7-4-13.9-7.11-21.43-9.18-16.99-4.65-34.5-7.58-52.12-8.17-16.54-.55-33.47,.78-49.48,5.18-11.95,3.28-23.46,8.44-33.64,15.56-10.69,7.47-19.75,17.39-25.19,29.32s-6.6,23.97-4.2,36.26,7.86,23.04,16.33,31.58c4.11,4.14,8.91,7.6,14.23,10.01,1.34,.61,2.72,1.15,4.12,1.62,.66,.22,1.32,.43,1.99,.62,.52,.15,1.37,.21,1.83,.49,1.05,.66,.96,3.17,1.02,4.21,.2,3.27,.1,6.58-.1,9.84,.01-.18,.85-.31,.87-.5h0Z"/></g><g><path class="cls-1" d="M445.04,495.19c-44.39-28.12-100.6-36.86-151.43-23.53-27.74,7.27-59.33,21.29-77.83,43.21-18.49,21.92-23.96,52.33-17.04,80.16,6.92,27.83,39.86,58.85,68.5,60.33-38.51,.85-77.67-45.02-77.33-83.54,.1-11.57,.34-23.91,4.35-34.58,9.33-24.85,30.23-47.16,54.08-59.69,15.35-8.07,34.6-14.98,51.45-18.79,20.57-4.65,41.98-4.18,63.1-2.67,29.03,2.06,63.35,15.65,82.01,37.98"/><path class="cls-1" d="M445.47,494.94c-12.72-8.04-26.4-14.52-40.66-19.33-14.26-4.81-29.07-7.97-44.05-9.41s-30.12-1.16-45.02,.89-28.37,5.67-41.93,10.67c-12.38,4.56-24.38,10.29-35.44,17.51s-22.07,16.96-29.52,28.71c-7.63,12.05-12,26.01-13.13,40.2-.57,7.16-.33,14.38,.7,21.48,.93,6.44,2.43,12.78,5.02,18.77,5.21,12,13.67,22.63,23.4,31.29,9.54,8.5,20.96,15.68,33.51,18.66,2.78,.66,5.61,1.08,8.46,1.24l.87-.5c-12.33,.23-24.25-4.23-34.49-10.86-11.1-7.19-20.55-16.93-27.89-27.9s-12.48-22.8-14.31-35.55c-1.01-7.04-.71-14.27-.34-21.35,.43-8.17,1.59-16.28,4.61-23.93,5.4-13.66,13.99-26,24.28-36.42,5.23-5.29,10.94-10.11,17.04-14.37,7.24-5.05,15.09-9.07,23.17-12.6,15.06-6.59,31.06-11.93,47.3-14.62,17.73-2.94,35.82-2.51,53.69-1.29,14.11,.96,27.96,4.06,41.13,9.22s25.6,12.23,35.91,21.84c2.37,2.21,4.61,4.56,6.7,7.05,.04,.05,.83-.54,.87-.5-9.12-10.87-21.14-19.04-33.88-25.11s-27.07-10.36-41.36-12.2c-8.26-1.06-16.67-1.39-24.99-1.62-9.17-.25-18.36-.09-27.49,.83-17,1.71-33.6,6.53-49.46,12.77-13.38,5.27-26.32,11.73-37.69,20.61-11.89,9.29-22.19,20.79-29.74,33.87-3.81,6.6-7.14,13.7-8.89,21.14-1.94,8.25-2.22,16.79-2.33,25.23-.08,6.49,.44,12.8,2.03,19.11s3.99,12.49,6.97,18.31c6.19,12.09,14.87,23.01,25.32,31.7,9.79,8.15,21.5,14.57,34.2,16.53,2.91,.45,5.84,.65,8.78,.59,.29,0,.59-.52,.87-.5-12.16-.68-23.68-6.18-33.48-13.13-10.67-7.57-19.99-17.33-26.86-28.48-3.12-5.07-5.75-10.5-7.48-16.21-1.97-6.53-3-13.44-3.4-20.24-.83-13.9,1.34-28.01,6.68-40.89,5.33-12.83,13.81-23.87,24.42-32.77,11.67-9.8,25.26-17.09,39.34-22.79,12.94-5.24,26.45-9.28,40.19-11.77,14.52-2.63,29.35-3.53,44.09-2.78s29.26,3.16,43.4,7.15,27.82,9.58,40.67,16.69c3.17,1.75,6.28,3.6,9.34,5.54,.14,.09,.74-.58,.87-.5h0Z"/></g><path class="cls-1" d="M260.06,651.64c.29,0,.58-.5,.87-.5-.29,0-.58,.5-.87,.5h0Z"/><g><path class="cls-1" d="M457.51,542.48c-5.77-21.01-24.12-36.49-44.01-45.39-19.89-8.9-41.16-12.05-62.95-11.91-30.4,.21-63.61,3.93-90.05,18.92-26.44,14.99-45.48,35.59-48.08,65.88-2.6,30.29,18.45,73.58,48.08,80.39-34.26-6.59-60.31-50.7-55.66-85.28,2.16-16.05,7.79-32.43,18.27-44.64,12.09-14.1,30.07-24.31,47.16-31.88,31.9-14.12,63.36-18.4,98.03-14.57,19.28,2.13,43.68,9.95,60.06,20.34s28.98,28.54,28.03,47.91"/><path class="cls-1" d="M457.94,542.23c-3.63-13.04-12.12-24.03-22.57-32.42-11.47-9.22-25.14-15.44-39.26-19.37-15.8-4.4-32.17-5.72-48.51-5.47-15.3,.24-30.65,1.39-45.69,4.37-14.35,2.84-28.44,7.4-41.21,14.64-10.58,6-20.64,13.1-28.94,22.06-8.37,9.04-14.63,19.88-17.71,31.85s-2.85,23.47-.21,35.11,7.5,23.06,14.26,33c6.25,9.19,14.46,17.61,24.73,22.19,2.32,1.04,4.74,1.85,7.22,2.44l.87-.5c-11.5-2.25-21.76-8.59-30.05-16.72-8.78-8.61-15.59-19.26-20.13-30.67-4.42-11.1-6.83-23.26-5.77-35.22,.63-7.18,2.24-14.38,4.46-21.24,2.33-7.21,5.53-14.18,9.81-20.45,9.22-13.54,23.42-23.32,37.73-30.82s29.24-13.34,44.82-17.1c15.53-3.75,31.52-5.31,47.48-4.92s30.25,2.41,44.88,6.81c7.21,2.17,14.29,4.79,21.12,7.96,6.32,2.94,12.53,6.32,18.03,10.63,10.78,8.44,19.41,20.44,21.95,34.07,.62,3.31,.85,6.68,.7,10.05,0-.17,.86-.31,.87-.5,.63-14.26-5.98-27.75-15.72-37.86s-23.7-17.02-37.26-21.93c-14.57-5.27-29.6-8.32-45.05-9.34-16.31-1.07-32.74-.24-48.79,2.92-16,3.15-31.44,8.61-46.12,15.68-12.79,6.16-25.34,13.56-35.66,23.4-5.55,5.29-10.23,11.31-13.84,18.08s-6.3,14.38-8.08,22.01c-1.52,6.54-2.55,13.22-2.42,19.95,.12,6.1,1.06,12.18,2.61,18.07,3.22,12.2,9.05,23.77,16.93,33.62s17.13,17.42,28.45,21.69c2.66,1,5.39,1.78,8.18,2.33,.25,.05,.63-.55,.87-.5-10.49-2.46-19.37-9.23-26.31-17.27-7.65-8.86-13.31-19.45-17.09-30.5s-5.65-21.87-4.64-33.01c1.11-12.27,5.22-24.07,12.14-34.27s16.35-18.64,26.6-25.5c13.04-8.73,27.44-14.63,42.67-18.27s29.74-5.07,44.78-5.64c15.68-.59,31.4-.15,46.82,3.01,14.54,2.98,28.83,8.2,41.3,16.33,11,7.17,20.8,16.78,26.52,28.73,1.38,2.89,2.5,5.89,3.36,8.98-.02-.07,.89-.41,.87-.5h0Z"/></g></g></svg>