<?xml version="1.0" encoding="UTF-8"?><svg id="Layer_8" xmlns="http://www.w3.org/2000/svg" width="996.2" height="996.2" viewBox="0 0 996.2 996.2"><defs><style>.cls-1{fill:#f79840;}.cls-2{fill:#fedbc5;}.cls-3{fill:#d52e48;}</style></defs><circle class="cls-2" cx="457.02" cy="616.17" r="343.43"/><path class="cls-3" d="M752.1,76.44L224.96,607.86l-.06,.71c-.37,4.21,3.29,7.87,7.59,7.58h0L779.05,102.36l.36-.65c2.66-4.84,2.77-10.84-.08-15.81-2.28-3.96-5.59-7.3-9.55-9.64-5.54-3.28-12.42-3.07-17.67,.19h0Z"/><g><path class="cls-1" d="M423.19,710.87v-74.29c0-3.43,.76-6.02,2.29-7.78,1.53-1.76,3.59-2.64,6.18-2.64s4.68,.87,6.27,2.6c1.59,1.74,2.38,4.34,2.38,7.81v74.29c0,3.47-.81,6.08-2.42,7.81-1.61,1.74-3.69,2.6-6.24,2.6s-4.55-.9-6.12-2.7c-1.57-1.8-2.35-4.37-2.35-7.72Z"/><path class="cls-1" d="M503.01,711.62v-2.2c-2.05,2.59-4.2,4.77-6.46,6.53s-4.73,3.06-7.4,3.92c-2.68,.86-5.73,1.29-9.16,1.29-4.14,0-7.85-.86-11.14-2.57-3.28-1.71-5.83-4.08-7.62-7.09-2.13-3.64-3.2-8.87-3.2-15.69v-33.94c0-3.43,.77-5.99,2.32-7.69s3.6-2.54,6.15-2.54,4.68,.86,6.27,2.57c1.59,1.72,2.38,4.27,2.38,7.66v27.42c0,3.97,.33,7.31,1,10.01,.67,2.7,1.87,4.81,3.61,6.34,1.74,1.53,4.09,2.29,7.06,2.29s5.6-.86,8.16-2.57c2.55-1.71,4.41-3.95,5.58-6.71,.96-2.43,1.44-7.74,1.44-15.94v-20.83c0-3.39,.79-5.94,2.38-7.66,1.59-1.71,3.66-2.57,6.21-2.57s4.6,.85,6.15,2.54c1.55,1.69,2.32,4.26,2.32,7.69v49.63c0,3.26-.74,5.71-2.23,7.34-1.49,1.63-3.4,2.45-5.74,2.45s-4.28-.85-5.8-2.54c-1.53-1.69-2.29-4.07-2.29-7.12Z"/><path class="cls-1" d="M553.66,696.56v14.31c0,3.47-.82,6.08-2.45,7.81-1.63,1.74-3.7,2.6-6.21,2.6s-4.5-.88-6.09-2.63-2.38-4.35-2.38-7.78v-47.69c0-7.7,2.78-11.54,8.34-11.54,2.84,0,4.89,.9,6.15,2.7,1.26,1.8,1.95,4.45,2.07,7.97,2.05-3.51,4.15-6.17,6.31-7.97,2.15-1.8,5.03-2.7,8.63-2.7s7.09,.9,10.48,2.7,5.08,4.18,5.08,7.15c0,2.09-.72,3.82-2.16,5.18-1.44,1.36-3,2.04-4.67,2.04-.63,0-2.14-.39-4.55-1.16-2.41-.77-4.53-1.16-6.37-1.16-2.51,0-4.56,.66-6.15,1.98-1.59,1.32-2.82,3.27-3.7,5.87-.88,2.59-1.49,5.68-1.82,9.25-.33,3.58-.5,7.94-.5,13.08Z"/><path class="cls-1" d="M607.57,661.24v2.07c3.22-3.97,6.57-6.89,10.04-8.75,3.47-1.86,7.4-2.79,11.8-2.79,5.27,0,10.12,1.36,14.56,4.08s7.94,6.69,10.51,11.92c2.57,5.23,3.86,11.42,3.86,18.57,0,5.27-.74,10.11-2.23,14.53-1.49,4.41-3.52,8.12-6.12,11.11-2.59,2.99-5.66,5.29-9.19,6.9-3.54,1.61-7.33,2.42-11.39,2.42-4.89,0-9-.98-12.33-2.95-3.33-1.96-6.49-4.85-9.51-8.66v25.72c0,7.53-2.74,11.29-8.22,11.29-3.22,0-5.36-.97-6.4-2.92-1.05-1.95-1.57-4.78-1.57-8.5v-73.91c0-3.26,.71-5.7,2.13-7.31,1.42-1.61,3.37-2.42,5.84-2.42s4.4,.83,5.93,2.48c1.53,1.65,2.29,4.03,2.29,7.12Zm33.57,24.91c0-4.52-.69-8.4-2.07-11.64-1.38-3.24-3.29-5.73-5.74-7.47-2.45-1.74-5.16-2.6-8.13-2.6-4.73,0-8.71,1.86-11.95,5.58-3.24,3.72-4.86,9.2-4.86,16.44,0,6.82,1.61,12.12,4.83,15.91,3.22,3.79,7.22,5.68,11.98,5.68,2.84,0,5.48-.83,7.91-2.48,2.43-1.65,4.37-4.13,5.83-7.44,1.46-3.3,2.2-7.3,2.2-11.98Z"/></g><path class="cls-3" d="M878.75,194.91L243.14,597.01l-.22,.67c-1.29,3.99,1.51,8.32,5.81,8.96h0L899.58,225.75l.5-.56c3.68-4.12,5.11-9.91,3.39-15.33-1.37-4.32-3.9-8.26-7.28-11.38-4.74-4.36-11.54-5.63-17.44-3.58h0Z"/><path class="cls-1" d="M291.12,495.41c-20.96,14.04-23.84,44.66-13.57,64.5,10.27,19.84,30.11,35.67,48.47,51.71,18.36,16.04,36.26,33.77,41.11,54.78,4.85,21.02-7.81,45.87-34.29,52.43-26.48,6.56-59.3-15.74-47.5-35.07,4.76-7.8,15.39-15.85,9.97-23.4-3.29-4.59-11.68-5.9-18.01-3.93-6.33,1.97-10.79,6.42-13.87,11.1-13.19,20.01-3.61,46.73,20.12,59.83,23.73,13.1,58.52,12.06,81.96-1.35,23.43-13.41,34.67-37.71,29.29-59.75-10.96-44.89-79.97-72.2-87.04-117.54-2.43-15.59,3.68-32.22,18.12-43.36,14.44-11.13,37.42-15.87,56.51-10.19,19.09,5.68,32.18,22.29,27.85,37.64-4.33,15.35-27.14,26.51-46.63,21.69-5.51-1.36-11.05-3.84-16.7-2.89-8.58,1.44-11.67,10.63-7.17,16.4,4.51,5.78,13.75,8.38,22.49,8.99,33.24,2.32,64.54-21.15,65.22-46.74,.69-25.59-18.42-46.76-51.14-51.81-32.72-5.05-69.83,.06-89.35,20.82l4.17-3.85Z"/><polyline class="cls-3" points="272.05 560.39 280.77 570.77 327.48 526.85 316.5 515.66"/></svg>