<?xml version="1.0" encoding="UTF-8"?><svg xmlns="http://www.w3.org/2000/svg" width="1000" height="1000" viewBox="0 0 1000 1000"><defs><style>.cls-1{fill:#e3d56d;}.cls-2{fill:#cc3e25;}</style></defs><g id="Layer_4"><g id="Layer_2"><path class="cls-2" d="M114.62,199.18L780.81,474.38l.65-.2c3.84-1.2,5.68-5.78,3.8-9.5h0L127.25,165.82l-.71-.08c-5.26-.6-10.58,1.48-13.88,5.82-2.63,3.46-4.31,7.62-4.88,11.99-.79,6.12,1.98,12.15,6.84,15.63h0Z"/><path class="cls-2" d="M57.21,320.1l702.05,147.31,.6-.32c3.58-1.89,4.61-6.75,2.14-10.05h0L64.02,284.92l-.71,.05c-5.28,.38-10.17,3.42-12.68,8.3-2,3.9-2.96,8.3-2.78,12.71,.25,6.17,3.99,11.59,9.36,14.12h0Z"/></g></g><g id="Layer_6"><path class="cls-1" d="M295.71,273.99l105.69,43.27s-100.94-39.62-105.69-43.27Z"/><polygon class="cls-2" points="416.48 298.36 412.07 322.06 295.71 273.99 308.12 247.97 416.48 298.36"/><g><path class="cls-1" d="M466.57,688.11v-102.47c0-4.73,1.05-8.31,3.16-10.73,2.11-2.42,4.95-3.63,8.52-3.63s6.46,1.2,8.65,3.59c2.19,2.39,3.29,5.99,3.29,10.78v102.47c0,4.79-1.11,8.38-3.33,10.78-2.22,2.39-5.09,3.59-8.61,3.59s-6.27-1.24-8.44-3.72c-2.16-2.48-3.25-6.03-3.25-10.65Z"/><path class="cls-1" d="M576.67,689.15v-3.03c-2.83,3.58-5.8,6.58-8.91,9-3.12,2.42-6.52,4.23-10.21,5.41-3.69,1.18-7.91,1.77-12.64,1.77-5.71,0-10.83-1.18-15.36-3.55-4.53-2.37-8.04-5.63-10.52-9.78-2.94-5.02-4.41-12.23-4.41-21.64v-46.82c0-4.73,1.07-8.27,3.2-10.6,2.13-2.34,4.96-3.5,8.48-3.5s6.46,1.18,8.65,3.55c2.19,2.37,3.29,5.88,3.29,10.56v37.82c0,5.48,.46,10.08,1.38,13.8,.92,3.72,2.58,6.64,4.98,8.74,2.39,2.11,5.64,3.16,9.74,3.16s7.73-1.18,11.25-3.55c3.52-2.37,6.09-5.45,7.7-9.26,1.33-3.35,1.99-10.67,1.99-21.98v-28.73c0-4.67,1.1-8.19,3.29-10.56,2.19-2.37,5.05-3.55,8.57-3.55s6.35,1.17,8.48,3.5c2.13,2.34,3.2,5.87,3.2,10.6v68.46c0,4.5-1.02,7.88-3.07,10.13-2.05,2.25-4.69,3.38-7.92,3.38s-5.9-1.17-8.01-3.51c-2.11-2.34-3.16-5.61-3.16-9.82Z"/><path class="cls-1" d="M646.54,668.38v19.73c0,4.79-1.13,8.38-3.38,10.78s-5.11,3.59-8.57,3.59-6.2-1.21-8.39-3.64c-2.19-2.42-3.29-6-3.29-10.73v-65.78c0-10.62,3.84-15.92,11.51-15.92,3.92,0,6.75,1.24,8.48,3.72,1.73,2.48,2.68,6.14,2.86,10.99,2.83-4.85,5.73-8.51,8.7-10.99,2.97-2.48,6.94-3.72,11.9-3.72s9.78,1.24,14.45,3.72c4.67,2.48,7.01,5.77,7.01,9.87,0,2.89-1,5.27-2.99,7.14s-4.14,2.81-6.45,2.81c-.87,0-2.96-.53-6.28-1.6-3.32-1.07-6.25-1.6-8.78-1.6-3.46,0-6.29,.91-8.48,2.73-2.19,1.82-3.9,4.52-5.11,8.09-1.21,3.58-2.05,7.83-2.51,12.77s-.69,10.95-.69,18.04Z"/><path class="cls-1" d="M720.9,619.65v2.86c4.44-5.48,9.06-9.5,13.85-12.07,4.79-2.57,10.21-3.85,16.27-3.85,7.27,0,13.96,1.88,20.08,5.63,6.12,3.75,10.95,9.23,14.5,16.44,3.55,7.21,5.32,15.75,5.32,25.62,0,7.27-1.02,13.95-3.07,20.04-2.05,6.09-4.86,11.19-8.44,15.32-3.58,4.13-7.8,7.3-12.68,9.52-4.88,2.22-10.11,3.33-15.71,3.33-6.75,0-12.42-1.36-17.01-4.07-4.59-2.71-8.96-6.69-13.11-11.94v35.48c0,10.39-3.78,15.58-11.34,15.58-4.44,0-7.39-1.34-8.83-4.02-1.44-2.68-2.16-6.59-2.16-11.73v-101.95c0-4.5,.98-7.86,2.94-10.08,1.96-2.22,4.64-3.33,8.05-3.33s6.07,1.14,8.18,3.42c2.11,2.28,3.16,5.55,3.16,9.82Zm46.3,34.36c0-6.23-.95-11.58-2.86-16.05-1.9-4.47-4.54-7.9-7.92-10.3-3.38-2.39-7.11-3.59-11.21-3.59-6.52,0-12.02,2.57-16.49,7.7-4.47,5.14-6.71,12.69-6.71,22.68,0,9.41,2.22,16.72,6.66,21.94,4.44,5.22,9.95,7.83,16.53,7.83,3.92,0,7.56-1.14,10.91-3.42,3.35-2.28,6.03-5.7,8.05-10.26,2.02-4.56,3.03-10.07,3.03-16.53Z"/></g><path class="cls-1" d="M268.65,295.29c-33.61,29.32-38.24,93.24-21.77,134.66,16.47,41.42,48.29,74.47,77.74,107.95,29.45,33.49,58.15,70.5,65.92,114.38,7.78,43.88-12.52,95.77-54.99,109.47-42.47,13.7-95.11-32.87-76.18-73.23,7.64-16.29,24.67-33.09,15.99-48.85-5.28-9.58-18.74-12.32-28.88-8.2-10.15,4.12-17.31,13.41-22.25,23.17-21.15,41.78-5.78,97.57,32.27,124.92,38.05,27.35,93.86,25.18,131.44-2.81,37.58-27.99,55.6-78.74,46.97-124.75-17.57-93.72-128.25-150.73-139.6-245.41-3.9-32.56,5.9-67.28,29.06-90.52,23.16-23.25,60.01-33.13,90.63-21.28,30.62,11.85,51.61,46.55,44.67,78.59-6.94,32.05-43.53,55.36-74.78,45.28-8.84-2.85-17.72-8.02-26.79-6.04-13.75,3.01-18.72,22.19-11.49,34.25,7.23,12.06,22.04,17.49,36.06,18.77,53.31,4.84,103.5-44.15,104.6-97.58,1.1-53.43-29.54-97.63-82.01-108.18-52.47-10.55-111.99,.12-143.3,43.46l6.68-8.05Z"/><polygon class="cls-2" points="252.43 256.11 427.27 327.35 428.31 302.75 257.38 224.92 252.43 256.11"/></g></svg>