<?xml version="1.0" encoding="UTF-8"?><svg id="Layer_3" xmlns="http://www.w3.org/2000/svg" width="1077.76" height="1007.99" viewBox="0 0 1077.76 1007.99"><defs><style>.cls-1{fill:#f79840;}.cls-2{fill:#e3d56d;}.cls-3{fill:#d52e48;}</style></defs><rect class="cls-3" x="165.05" y="164.11" width="764.1" height="722.12"/><g><path class="cls-1" d="M513.72,717.1v-102.47c0-4.73,1.05-8.31,3.16-10.73,2.11-2.42,4.95-3.63,8.52-3.63s6.46,1.2,8.66,3.59c2.19,2.39,3.29,5.99,3.29,10.78v102.47c0,4.79-1.11,8.38-3.33,10.78-2.22,2.39-5.09,3.59-8.61,3.59s-6.27-1.24-8.44-3.72c-2.16-2.48-3.25-6.03-3.25-10.65Z"/><path class="cls-1" d="M623.82,718.14v-3.03c-2.83,3.58-5.8,6.58-8.91,9-3.12,2.42-6.52,4.23-10.21,5.41-3.69,1.18-7.91,1.77-12.64,1.77-5.71,0-10.83-1.18-15.36-3.55-4.53-2.37-8.04-5.63-10.52-9.78-2.94-5.02-4.41-12.23-4.41-21.64v-46.82c0-4.73,1.07-8.27,3.2-10.6,2.13-2.34,4.96-3.5,8.48-3.5s6.46,1.18,8.65,3.55c2.19,2.37,3.29,5.88,3.29,10.56v37.82c0,5.48,.46,10.08,1.38,13.8,.92,3.72,2.58,6.64,4.98,8.74,2.39,2.11,5.64,3.16,9.74,3.16s7.73-1.18,11.25-3.55c3.52-2.37,6.09-5.45,7.7-9.26,1.33-3.35,1.99-10.67,1.99-21.98v-28.73c0-4.67,1.1-8.19,3.29-10.56,2.19-2.37,5.05-3.55,8.57-3.55s6.35,1.17,8.48,3.5c2.13,2.34,3.2,5.87,3.2,10.6v68.46c0,4.5-1.02,7.88-3.07,10.13-2.05,2.25-4.69,3.38-7.92,3.38s-5.9-1.17-8.01-3.51c-2.11-2.34-3.16-5.61-3.16-9.82Z"/><path class="cls-1" d="M693.69,697.37v19.73c0,4.79-1.13,8.38-3.38,10.78s-5.11,3.59-8.57,3.59-6.2-1.21-8.39-3.64c-2.19-2.42-3.29-6-3.29-10.73v-65.78c0-10.62,3.84-15.92,11.51-15.92,3.92,0,6.75,1.24,8.48,3.72,1.73,2.48,2.68,6.14,2.86,10.99,2.83-4.85,5.73-8.51,8.7-10.99,2.97-2.48,6.94-3.72,11.9-3.72s9.78,1.24,14.45,3.72c4.67,2.48,7.01,5.77,7.01,9.87,0,2.89-1,5.27-2.99,7.14s-4.14,2.81-6.45,2.81c-.87,0-2.96-.53-6.28-1.6-3.32-1.07-6.25-1.6-8.78-1.6-3.46,0-6.29,.91-8.48,2.73-2.19,1.82-3.9,4.52-5.11,8.09-1.21,3.58-2.05,7.83-2.51,12.77s-.69,10.95-.69,18.04Z"/><path class="cls-1" d="M768.05,648.64v2.86c4.44-5.48,9.06-9.5,13.85-12.07,4.79-2.57,10.21-3.85,16.27-3.85,7.27,0,13.96,1.88,20.08,5.63,6.12,3.75,10.95,9.23,14.5,16.44,3.55,7.21,5.32,15.75,5.32,25.62,0,7.27-1.02,13.95-3.07,20.04-2.05,6.09-4.86,11.19-8.44,15.32-3.58,4.13-7.8,7.3-12.68,9.52-4.88,2.22-10.11,3.33-15.71,3.33-6.75,0-12.42-1.36-17.01-4.07-4.59-2.71-8.96-6.69-13.11-11.94v35.48c0,10.39-3.78,15.58-11.34,15.58-4.44,0-7.39-1.34-8.83-4.02-1.44-2.68-2.16-6.59-2.16-11.73v-101.95c0-4.5,.98-7.86,2.94-10.08,1.96-2.22,4.64-3.33,8.05-3.33s6.07,1.14,8.18,3.42c2.11,2.28,3.16,5.55,3.16,9.82Zm46.3,34.36c0-6.23-.95-11.58-2.86-16.05-1.9-4.47-4.54-7.9-7.92-10.3-3.38-2.39-7.11-3.59-11.21-3.59-6.52,0-12.02,2.57-16.49,7.7-4.47,5.14-6.71,12.69-6.71,22.68,0,9.41,2.22,16.72,6.66,21.94,4.44,5.22,9.95,7.83,16.53,7.83,3.92,0,7.56-1.14,10.91-3.42,3.35-2.28,6.03-5.7,8.05-10.26,2.02-4.56,3.03-10.07,3.03-16.53Z"/></g><g><path class="cls-1" d="M304.98,328.01c-35.07,26.71-39.9,84.94-22.71,122.67,17.18,37.73,50.39,67.83,81.12,98.34,30.73,30.5,60.67,64.22,68.79,104.19,8.11,39.97-13.07,87.24-57.38,99.72-44.32,12.48-99.24-29.94-79.49-66.71,7.97-14.84,25.75-30.15,16.69-44.5-5.51-8.73-19.55-11.22-30.14-7.47-10.59,3.75-18.06,12.21-23.21,21.1-22.07,38.06-6.04,88.88,33.67,113.79,39.71,24.91,97.94,22.94,137.15-2.56,39.21-25.5,58.01-71.72,49.01-113.64-18.33-85.37-133.83-137.31-145.66-223.55-4.07-29.66,6.16-61.28,30.32-82.46,24.16-21.18,62.62-30.18,94.57-19.39,31.95,10.79,53.85,42.4,46.61,71.6-7.24,29.19-45.42,50.43-78.03,41.25-9.22-2.6-18.49-7.31-27.95-5.5-14.35,2.74-19.54,20.21-11.99,31.2,7.54,10.99,23,15.94,37.63,17.09,55.62,4.41,108-40.22,109.15-88.89,1.15-48.67-30.82-88.94-85.58-98.54-54.75-9.61-116.85,.11-149.53,39.59l6.97-7.33Z"/><path class="cls-2" d="M304.55,328.26c-29.97,23.04-37.21,66.59-29.56,101.74,4.47,20.57,15.4,38.99,28.05,55.58,14.66,19.22,31.99,36.21,49.19,53.12,17.28,16.98,34.61,34.04,49.33,53.35,13.89,18.22,25.6,38.75,30.18,61.42,7.41,36.69-10.02,78.78-44.85,94.91-17.41,8.06-36.57,8.37-54.44,1.5-15.69-6.04-30.96-17.49-37.74-33.3-3.04-7.09-4.02-14.98-2.13-22.51,2.38-9.51,9.11-17.18,14.48-25.13,5.08-7.52,10.83-17.25,6.03-26.31-4.54-8.56-15.58-11.17-24.52-10.08-18.45,2.25-30.84,19.99-36.37,36.3-5.96,17.6-4.92,36.97,1.6,54.27,6.95,18.42,19.91,34.38,36.35,45.18,17.63,11.59,38.67,17.44,59.62,18.57,39.96,2.16,81.05-12.8,106.58-44.35,12.7-15.69,21.14-34.8,23.84-54.83,2.51-18.6-.34-37.23-7.32-54.57-13.4-33.31-39.12-60.1-63.44-85.76-24.27-25.6-50.37-51.52-65.66-83.8-7.73-16.31-12.25-34.27-11.24-52.4,1.19-21.52,9.83-42.41,24.57-58.19,29.81-31.91,85.74-40.94,121.56-13.84,15.25,11.54,26.76,29.6,26.62,49.18-.14,20.03-13.63,37.06-30.9,46.07-8.87,4.62-18.76,7.41-28.76,7.87-4.81,.22-9.66-.1-14.39-1.02-5.74-1.12-11.16-3.33-16.75-5-8.09-2.41-16.74-3.1-23.88,2.04-6.58,4.74-9.39,13.57-7.61,21.36,2.15,9.41,10.95,15.64,19.41,19.09,9.97,4.07,21.04,5.31,31.75,4.98,18.55-.56,36.53-6.47,52.33-16.09s30.23-24.08,38.76-41.19c8.45-16.94,10.11-35.77,6.52-54.24-3.32-17.1-11.38-33.09-23.35-45.76-12.83-13.58-29.59-22.88-47.49-27.95-20.32-5.76-42.4-7.21-63.42-6.09s-41.47,5.25-60.38,13.87c-15.08,6.87-28.88,16.58-39.53,29.36,.2-.24,.65-.27,.87-.5l6.97-7.33c-.22,.23-.64,.27-.87,.5l-6.97,7.33,.87-.5c27.5-32.99,73.15-43.38,114.35-42.47,20.5,.45,41.72,3.04,60.74,11.05,16.54,6.97,31.3,18.06,41.81,32.7,10.13,14.11,15.89,30.98,17.11,48.27,1.33,18.84-3.5,36.79-14.05,52.47-11.94,17.75-29.68,31.52-49.61,39.17s-41.16,9.67-60.83,3.6c-8.93-2.76-18.75-8-22.82-16.92-3.37-7.38-2-16.69,3.49-22.7,8.63-9.44,22.07-4.55,32.33-1.16,9.68,3.21,19.5,4.47,29.66,3.08,16.25-2.23,32.34-10.49,43.16-22.9,5.9-6.77,10.15-14.89,11.67-23.78,1.56-9.12,.33-18.53-2.98-27.14-7.07-18.35-22.88-32.77-41.02-39.87-19.85-7.77-42.47-7.36-62.67-1.12-17.96,5.55-34.52,15.92-46.46,30.53-13.37,16.36-20.67,37.23-20.81,58.33-.24,35.67,19.84,67.03,42.02,93.35,23.36,27.72,50.47,52.15,72.7,80.85,10.51,13.57,19.91,28.19,26.2,44.22,6.77,17.26,9.4,35.75,6.81,54.17-2.8,19.9-11.29,38.87-23.96,54.44-14.51,17.81-34.12,30.49-56.04,37.2-39.32,12.04-87.29,7.07-118.93-20.89-27.92-24.68-40.62-66.81-23.06-101.11,5.3-10.35,13.37-20.44,24.79-24.18,8.52-2.79,19.53-1.96,26.5,4.15,7.71,6.76,6.04,16.63,1.59,24.7-4.93,8.93-12.31,16.47-16.47,25.84-6.69,15.08-.68,31.25,9.97,42.78,12.1,13.09,29.6,21.46,47.28,23.28,16.75,1.72,33.18-3.48,46.97-12.9,14.78-10.09,25.6-25.23,31.42-42.07s6.51-36.06,1.77-53.8c-5.93-22.18-18.33-42.02-32.57-59.79-29.94-37.38-69.07-66.46-97.41-105.21-12.05-16.48-21.98-34.59-25.82-54.79-3.49-18.35-2.86-37.73,2.33-55.71,4.82-16.72,13.93-32.3,27.85-43.01-.26,.2-.6,.3-.87,.5Z"/></g><path class="cls-2" d="M656.48,345.61c.29,0,.58-.5,.87-.5-.29,0-.58,.5-.87,.5h0Z"/><path class="cls-2" d="M609.24,321.99c.29,0,.58-.5,.87-.5-.29,0-.58,.5-.87,.5h0Z"/><path class="cls-2" d="M186.47,156.66c.29,0,.58-.5,.87-.5-.29,0-.58,.5-.87,.5h0Z"/><path class="cls-1" d="M63.13,217.24c.29,0,.58-.5,.87-.5-.29,0-.58,.5-.87,.5h0Z"/><path d="M59.99,195.66L755.14,482.82l.67-.21c4.01-1.25,5.92-6.04,3.97-9.91h0L73.17,160.85l-.74-.09c-5.49-.63-11.04,1.54-14.48,6.07-2.74,3.62-4.5,7.95-5.09,12.51-.83,6.38,2.06,12.68,7.13,16.31h0Z"/><path d="M9.79,332.02l732.56,153.72,.63-.33c3.73-1.97,4.81-7.04,2.23-10.49h0L16.9,295.31l-.74,.05c-5.51,.4-10.61,3.56-13.23,8.66-2.09,4.07-3.09,8.66-2.9,13.26,.26,6.44,4.17,12.09,9.77,14.73h0Z"/></svg>